<svg width="400" height="400">
<rect x="0" y="0" width="400" height="400" style="fill:rgb(255, 255, 255)" />
	<line x1="79" y1="72" x2="214" y2="73" stroke="black" />
	<line x1="79" y1="76" x2="296" y2="73" stroke="black" />
	<line x1="79" y1="84" x2="296" y2="83" stroke="black" />
	<line x1="80" y1="89" x2="296" y2="89" stroke="black" />
	<line x1="80" y1="94" x2="296" y2="94" stroke="black" />
	<line x1="80" y1="99" x2="296" y2="99" stroke="black" />
	<line x1="80" y1="104" x2="296" y2="104" stroke="black" />
	<line x1="80" y1="109" x2="296" y2="109" stroke="black" />
	<line x1="80" y1="114" x2="296" y2="114" stroke="black" />
	<line x1="80" y1="119" x2="296" y2="119" stroke="black" />
	<line x1="80" y1="124" x2="296" y2="124" stroke="black" />
	<line x1="80" y1="129" x2="296" y2="129" stroke="black" />
	<line x1="80" y1="134" x2="296" y2="134" stroke="black" />
	<line x1="80" y1="139" x2="296" y2="139" stroke="black" />
	<line x1="80" y1="144" x2="296" y2="144" stroke="black" />
	<line x1="80" y1="149" x2="296" y2="149" stroke="black" />
	<line x1="80" y1="154" x2="296" y2="154" stroke="black" />
	<line x1="80" y1="159" x2="296" y2="159" stroke="black" />
	<line x1="80" y1="164" x2="296" y2="164" stroke="black" />
	<line x1="80" y1="169" x2="296" y2="169" stroke="black" />
	<line x1="80" y1="174" x2="296" y2="174" stroke="black" />
	<line x1="80" y1="179" x2="296" y2="179" stroke="black" />
	<line x1="80" y1="184" x2="297" y2="184" stroke="black" />
	<line x1="79" y1="190" x2="297" y2="189" stroke="black" />
	<line x1="79" y1="195" x2="297" y2="195" stroke="black" />
	<line x1="79" y1="201" x2="297" y2="200" stroke="black" />
	<line x1="79" y1="206" x2="297" y2="206" stroke="black" />
	<line x1="79" y1="212" x2="297" y2="211" stroke="black" />
	<line x1="79" y1="217" x2="297" y2="217" stroke="black" />
	<line x1="79" y1="223" x2="297" y2="222" stroke="black" />
	<line x1="79" y1="228" x2="297" y2="228" stroke="black" />
	<line x1="79" y1="234" x2="297" y2="233" stroke="black" />
	<line x1="79" y1="239" x2="297" y2="239" stroke="black" />
	<line x1="79" y1="245" x2="297" y2="244" stroke="black" />
	<line x1="79" y1="250" x2="297" y2="250" stroke="black" />
	<line x1="79" y1="256" x2="297" y2="255" stroke="black" />
	<line x1="79" y1="261" x2="297" y2="261" stroke="black" />
	<line x1="79" y1="267" x2="297" y2="266" stroke="black" />
	<line x1="79" y1="272" x2="297" y2="272" stroke="black" />
	<line x1="79" y1="278" x2="297" y2="277" stroke="black" />
	<line x1="79" y1="283" x2="297" y2="283" stroke="black" />
	<line x1="79" y1="289" x2="297" y2="288" stroke="black" />
	<line x1="79" y1="293" x2="297" y2="294" stroke="black" />
	<line x1="150" y1="293" x2="297" y2="295" stroke="black" />
	<line x1="242" y1="295" x2="297" y2="295" stroke="black" />
	<line x1="261" y1="296" x2="297" y2="296" stroke="black" />
</svg>