<svg width="150" height="132">
	<line x1="72" y1="4" x2="85" y2="2" stroke="black" />
	<line x1="73" y1="5" x2="85" y2="6" stroke="black" />
	<line x1="85" y1="6" x2="93" y2="6" stroke="black" />
	<line x1="70" y1="7" x2="93" y2="6" stroke="black" />
	<line x1="74" y1="7" x2="94" y2="7" stroke="black" />
	<line x1="75" y1="8" x2="94" y2="7" stroke="black" />
	<line x1="62" y1="8" x2="98" y2="7" stroke="black" />
	<line x1="77" y1="9" x2="107" y2="8" stroke="black" />
	<line x1="55" y1="11" x2="95" y2="10" stroke="black" />
	<line x1="35" y1="16" x2="106" y2="14" stroke="black" />
	<line x1="35" y1="24" x2="119" y2="24" stroke="black" />
	<line x1="23" y1="39" x2="129" y2="34" stroke="black" />
	<line x1="30" y1="49" x2="128" y2="48" stroke="black" />
	<line x1="3" y1="57" x2="147" y2="56" stroke="black" />
	<line x1="2" y1="64" x2="147" y2="63" stroke="black" />
	<line x1="3" y1="69" x2="147" y2="68" stroke="black" />
	<line x1="9" y1="76" x2="145" y2="74" stroke="black" />
	<line x1="6" y1="82" x2="144" y2="81" stroke="black" />
	<line x1="8" y1="86" x2="142" y2="85" stroke="black" />
	<line x1="9" y1="91" x2="140" y2="90" stroke="black" />
	<line x1="17" y1="97" x2="136" y2="95" stroke="black" />
	<line x1="23" y1="104" x2="128" y2="103" stroke="black" />
	<line x1="25" y1="112" x2="126" y2="111" stroke="black" />
	<line x1="40" y1="120" x2="113" y2="119" stroke="black" />
	<line x1="68" y1="124" x2="86" y2="124" stroke="black" />
	<line x1="67" y1="125" x2="86" y2="124" stroke="black" />
	<line x1="72" y1="125" x2="82" y2="125" stroke="black" />
	<line x1="66" y1="126" x2="82" y2="125" stroke="black" />
	<line x1="67" y1="126" x2="84" y2="126" stroke="black" />
	<line x1="65" y1="127" x2="84" y2="126" stroke="black" />
	<line x1="67" y1="127" x2="84" y2="127" stroke="black" />
	<line x1="69" y1="128" x2="84" y2="127" stroke="black" />
	<line x1="70" y1="128" x2="80" y2="128" stroke="black" />
	<line x1="71" y1="129" x2="80" y2="128" stroke="black" />
</svg>