<svg width="150" height="132">
<rect x="0" y="0" width="150" height="132" style="fill:rgb(255, 255, 255)" />
	<line x1="77" y1="1" x2="82" y2="1" stroke="black" />
	<line x1="74" y1="2" x2="82" y2="1" stroke="black" />
	<line x1="75" y1="2" x2="87" y2="2" stroke="black" />
	<line x1="73" y1="3" x2="87" y2="2" stroke="black" />
	<line x1="74" y1="3" x2="90" y2="3" stroke="black" />
	<line x1="70" y1="4" x2="90" y2="3" stroke="black" />
	<line x1="71" y1="4" x2="92" y2="4" stroke="black" />
	<line x1="68" y1="5" x2="92" y2="4" stroke="black" />
	<line x1="69" y1="5" x2="95" y2="5" stroke="black" />
	<line x1="68" y1="6" x2="95" y2="5" stroke="black" />
	<line x1="69" y1="6" x2="97" y2="6" stroke="black" />
	<line x1="68" y1="7" x2="97" y2="6" stroke="black" />
	<line x1="69" y1="7" x2="99" y2="7" stroke="black" />
	<line x1="68" y1="8" x2="99" y2="7" stroke="black" />
	<line x1="69" y1="8" x2="102" y2="8" stroke="black" />
	<line x1="59" y1="9" x2="102" y2="8" stroke="black" />
	<line x1="62" y1="9" x2="108" y2="9" stroke="black" />
	<line x1="55" y1="10" x2="108" y2="9" stroke="black" />
	<line x1="59" y1="10" x2="107" y2="10" stroke="black" />
	<line x1="55" y1="11" x2="107" y2="10" stroke="black" />
	<line x1="58" y1="11" x2="106" y2="11" stroke="black" />
	<line x1="42" y1="12" x2="106" y2="11" stroke="black" />
	<line x1="54" y1="12" x2="107" y2="12" stroke="black" />
	<line x1="41" y1="13" x2="107" y2="12" stroke="black" />
	<line x1="39" y1="13" x2="109" y2="12" stroke="black" />
	<line x1="38" y1="14" x2="110" y2="13" stroke="black" />
	<line x1="37" y1="15" x2="111" y2="14" stroke="black" />
	<line x1="36" y1="16" x2="112" y2="15" stroke="black" />
	<line x1="35" y1="17" x2="114" y2="16" stroke="black" />
	<line x1="35" y1="18" x2="115" y2="17" stroke="black" />
	<line x1="35" y1="19" x2="116" y2="18" stroke="black" />
	<line x1="35" y1="20" x2="117" y2="19" stroke="black" />
	<line x1="35" y1="21" x2="118" y2="20" stroke="black" />
	<line x1="35" y1="22" x2="118" y2="21" stroke="black" />
	<line x1="35" y1="23" x2="119" y2="22" stroke="black" />
	<line x1="36" y1="24" x2="120" y2="23" stroke="black" />
	<line x1="36" y1="25" x2="120" y2="24" stroke="black" />
	<line x1="37" y1="26" x2="121" y2="25" stroke="black" />
	<line x1="38" y1="27" x2="121" y2="26" stroke="black" />
	<line x1="41" y1="28" x2="122" y2="27" stroke="black" />
	<line x1="48" y1="29" x2="122" y2="28" stroke="black" />
	<line x1="46" y1="30" x2="123" y2="29" stroke="black" />
	<line x1="48" y1="31" x2="123" y2="30" stroke="black" />
	<line x1="49" y1="32" x2="124" y2="31" stroke="black" />
	<line x1="48" y1="33" x2="124" y2="32" stroke="black" />
	<line x1="47" y1="34" x2="124" y2="33" stroke="black" />
	<line x1="45" y1="35" x2="125" y2="34" stroke="black" />
	<line x1="44" y1="36" x2="125" y2="35" stroke="black" />
	<line x1="24" y1="37" x2="126" y2="36" stroke="black" />
	<line x1="23" y1="38" x2="126" y2="37" stroke="black" />
	<line x1="23" y1="39" x2="127" y2="38" stroke="black" />
	<line x1="24" y1="40" x2="129" y2="39" stroke="black" />
	<line x1="24" y1="41" x2="128" y2="40" stroke="black" />
	<line x1="27" y1="42" x2="127" y2="41" stroke="black" />
	<line x1="30" y1="43" x2="128" y2="42" stroke="black" />
	<line x1="31" y1="44" x2="128" y2="43" stroke="black" />
	<line x1="31" y1="45" x2="128" y2="44" stroke="black" />
	<line x1="31" y1="46" x2="128" y2="45" stroke="black" />
	<line x1="31" y1="47" x2="128" y2="46" stroke="black" />
	<line x1="31" y1="48" x2="128" y2="47" stroke="black" />
	<line x1="31" y1="49" x2="128" y2="48" stroke="black" />
	<line x1="31" y1="50" x2="128" y2="49" stroke="black" />
	<line x1="30" y1="51" x2="128" y2="50" stroke="black" />
	<line x1="30" y1="52" x2="128" y2="51" stroke="black" />
	<line x1="30" y1="53" x2="128" y2="52" stroke="black" />
	<line x1="11" y1="54" x2="128" y2="53" stroke="black" />
	<line x1="7" y1="55" x2="128" y2="54" stroke="black" />
	<line x1="7" y1="56" x2="127" y2="55" stroke="black" />
	<line x1="7" y1="57" x2="143" y2="56" stroke="black" />
	<line x1="7" y1="58" x2="143" y2="57" stroke="black" />
	<line x1="3" y1="59" x2="144" y2="58" stroke="black" />
	<line x1="3" y1="61" x2="147" y2="59" stroke="black" />
	<line x1="3" y1="62" x2="147" y2="61" stroke="black" />
	<line x1="4" y1="63" x2="147" y2="62" stroke="black" />
	<line x1="1" y1="65" x2="148" y2="63" stroke="black" />
	<line x1="1" y1="66" x2="148" y2="65" stroke="black" />
	<line x1="4" y1="67" x2="147" y2="66" stroke="black" />
	<line x1="6" y1="69" x2="146" y2="67" stroke="black" />
	<line x1="7" y1="70" x2="145" y2="68" stroke="black" />
	<line x1="7" y1="71" x2="144" y2="69" stroke="black" />
	<line x1="8" y1="72" x2="144" y2="70" stroke="black" />
	<line x1="3" y1="73" x2="143" y2="71" stroke="black" />
	<line x1="5" y1="74" x2="142" y2="72" stroke="black" />
	<line x1="5" y1="75" x2="141" y2="73" stroke="black" />
	<line x1="8" y1="76" x2="145" y2="74" stroke="black" />
	<line x1="9" y1="77" x2="145" y2="75" stroke="black" />
	<line x1="89" y1="77" x2="139" y2="77" stroke="black" />
	<line x1="28" y1="78" x2="139" y2="77" stroke="black" />
	<line x1="10" y1="79" x2="140" y2="77" stroke="black" />
	<line x1="8" y1="80" x2="140" y2="79" stroke="black" />
	<line x1="7" y1="81" x2="145" y2="80" stroke="black" />
	<line x1="6" y1="83" x2="144" y2="81" stroke="black" />
	<line x1="6" y1="84" x2="143" y2="83" stroke="black" />
	<line x1="11" y1="85" x2="142" y2="84" stroke="black" />
	<line x1="8" y1="87" x2="141" y2="85" stroke="black" />
	<line x1="8" y1="88" x2="141" y2="87" stroke="black" />
	<line x1="12" y1="89" x2="140" y2="88" stroke="black" />
	<line x1="12" y1="91" x2="139" y2="89" stroke="black" />
	<line x1="12" y1="92" x2="139" y2="90" stroke="black" />
	<line x1="12" y1="93" x2="138" y2="91" stroke="black" />
	<line x1="17" y1="94" x2="137" y2="92" stroke="black" />
	<line x1="18" y1="95" x2="135" y2="93" stroke="black" />
	<line x1="55" y1="95" x2="134" y2="95" stroke="black" />
	<line x1="20" y1="96" x2="134" y2="95" stroke="black" />
	<line x1="42" y1="96" x2="132" y2="96" stroke="black" />
	<line x1="17" y1="97" x2="132" y2="96" stroke="black" />
	<line x1="44" y1="97" x2="130" y2="97" stroke="black" />
	<line x1="14" y1="98" x2="130" y2="97" stroke="black" />
	<line x1="17" y1="98" x2="135" y2="97" stroke="black" />
	<line x1="17" y1="99" x2="135" y2="98" stroke="black" />
	<line x1="23" y1="100" x2="134" y2="99" stroke="black" />
	<line x1="23" y1="101" x2="127" y2="100" stroke="black" />
	<line x1="24" y1="102" x2="127" y2="101" stroke="black" />
	<line x1="24" y1="103" x2="128" y2="102" stroke="black" />
	<line x1="23" y1="104" x2="128" y2="103" stroke="black" />
	<line x1="23" y1="105" x2="127" y2="104" stroke="black" />
	<line x1="26" y1="106" x2="127" y2="105" stroke="black" />
	<line x1="29" y1="107" x2="126" y2="106" stroke="black" />
	<line x1="25" y1="108" x2="126" y2="107" stroke="black" />
	<line x1="25" y1="109" x2="126" y2="108" stroke="black" />
	<line x1="26" y1="110" x2="125" y2="109" stroke="black" />
	<line x1="29" y1="111" x2="123" y2="110" stroke="black" />
	<line x1="32" y1="112" x2="119" y2="111" stroke="black" />
	<line x1="32" y1="113" x2="110" y2="113" stroke="black" />
	<line x1="40" y1="114" x2="110" y2="113" stroke="black" />
	<line x1="48" y1="114" x2="109" y2="114" stroke="black" />
	<line x1="37" y1="115" x2="109" y2="114" stroke="black" />
	<line x1="49" y1="115" x2="107" y2="115" stroke="black" />
	<line x1="35" y1="116" x2="107" y2="115" stroke="black" />
	<line x1="45" y1="116" x2="113" y2="116" stroke="black" />
	<line x1="43" y1="117" x2="113" y2="116" stroke="black" />
	<line x1="55" y1="117" x2="114" y2="117" stroke="black" />
	<line x1="40" y1="118" x2="114" y2="117" stroke="black" />
	<line x1="54" y1="118" x2="104" y2="118" stroke="black" />
	<line x1="39" y1="119" x2="104" y2="118" stroke="black" />
	<line x1="49" y1="119" x2="103" y2="119" stroke="black" />
	<line x1="40" y1="120" x2="103" y2="119" stroke="black" />
	<line x1="50" y1="120" x2="105" y2="120" stroke="black" />
	<line x1="46" y1="121" x2="105" y2="120" stroke="black" />
	<line x1="54" y1="121" x2="107" y2="121" stroke="black" />
	<line x1="46" y1="122" x2="107" y2="121" stroke="black" />
	<line x1="53" y1="122" x2="103" y2="122" stroke="black" />
	<line x1="46" y1="123" x2="103" y2="122" stroke="black" />
	<line x1="47" y1="123" x2="100" y2="123" stroke="black" />
	<line x1="51" y1="124" x2="100" y2="123" stroke="black" />
	<line x1="53" y1="124" x2="96" y2="124" stroke="black" />
	<line x1="67" y1="125" x2="96" y2="124" stroke="black" />
	<line x1="68" y1="125" x2="83" y2="125" stroke="black" />
	<line x1="66" y1="126" x2="83" y2="125" stroke="black" />
	<line x1="67" y1="126" x2="84" y2="126" stroke="black" />
	<line x1="65" y1="127" x2="84" y2="126" stroke="black" />
	<line x1="66" y1="127" x2="85" y2="127" stroke="black" />
	<line x1="69" y1="128" x2="85" y2="127" stroke="black" />
	<line x1="70" y1="128" x2="85" y2="128" stroke="black" />
	<line x1="70" y1="129" x2="85" y2="128" stroke="black" />
	<line x1="71" y1="129" x2="80" y2="129" stroke="black" />
</svg>