<svg width="400" height="400">
<rect x="0" y="0" width="400" height="400" style="fill:rgb(255, 255, 255)" />
	<line x1="181" y1="75" x2="182" y2="76" stroke="black" />
	<line x1="181" y1="77" x2="183" y2="77" stroke="black" />
	<line x1="181" y1="78" x2="184" y2="78" stroke="black" />
	<line x1="180" y1="80" x2="184" y2="79" stroke="black" />
	<line x1="180" y1="80" x2="185" y2="80" stroke="black" />
	<line x1="179" y1="82" x2="185" y2="81" stroke="black" />
	<line x1="179" y1="82" x2="186" y2="82" stroke="black" />
	<line x1="178" y1="83" x2="187" y2="83" stroke="black" />
	<line x1="178" y1="85" x2="187" y2="84" stroke="black" />
	<line x1="177" y1="85" x2="188" y2="85" stroke="black" />
	<line x1="177" y1="86" x2="189" y2="86" stroke="black" />
	<line x1="177" y1="88" x2="189" y2="87" stroke="black" />
	<line x1="176" y1="88" x2="190" y2="88" stroke="black" />
	<line x1="176" y1="89" x2="191" y2="89" stroke="black" />
	<line x1="175" y1="91" x2="191" y2="90" stroke="black" />
	<line x1="175" y1="91" x2="192" y2="91" stroke="black" />
	<line x1="174" y1="93" x2="192" y2="92" stroke="black" />
	<line x1="174" y1="93" x2="193" y2="93" stroke="black" />
	<line x1="174" y1="94" x2="194" y2="94" stroke="black" />
	<line x1="173" y1="96" x2="194" y2="95" stroke="black" />
	<line x1="173" y1="96" x2="195" y2="96" stroke="black" />
	<line x1="172" y1="97" x2="196" y2="97" stroke="black" />
	<line x1="172" y1="99" x2="196" y2="98" stroke="black" />
	<line x1="171" y1="99" x2="197" y2="99" stroke="black" />
	<line x1="171" y1="100" x2="198" y2="100" stroke="black" />
	<line x1="170" y1="102" x2="198" y2="101" stroke="black" />
	<line x1="170" y1="102" x2="199" y2="102" stroke="black" />
	<line x1="170" y1="104" x2="199" y2="103" stroke="black" />
	<line x1="169" y1="104" x2="200" y2="104" stroke="black" />
	<line x1="169" y1="105" x2="201" y2="105" stroke="black" />
	<line x1="168" y1="107" x2="201" y2="106" stroke="black" />
	<line x1="168" y1="107" x2="202" y2="107" stroke="black" />
	<line x1="167" y1="108" x2="203" y2="108" stroke="black" />
	<line x1="167" y1="110" x2="203" y2="109" stroke="black" />
	<line x1="167" y1="110" x2="204" y2="110" stroke="black" />
	<line x1="166" y1="111" x2="205" y2="111" stroke="black" />
	<line x1="166" y1="113" x2="205" y2="112" stroke="black" />
	<line x1="165" y1="113" x2="206" y2="113" stroke="black" />
	<line x1="165" y1="115" x2="206" y2="114" stroke="black" />
	<line x1="164" y1="115" x2="207" y2="115" stroke="black" />
	<line x1="164" y1="116" x2="208" y2="116" stroke="black" />
	<line x1="163" y1="118" x2="208" y2="117" stroke="black" />
	<line x1="163" y1="118" x2="209" y2="118" stroke="black" />
	<line x1="163" y1="119" x2="210" y2="119" stroke="black" />
	<line x1="162" y1="121" x2="210" y2="120" stroke="black" />
	<line x1="162" y1="121" x2="211" y2="121" stroke="black" />
	<line x1="161" y1="122" x2="212" y2="122" stroke="black" />
	<line x1="161" y1="124" x2="212" y2="123" stroke="black" />
	<line x1="160" y1="124" x2="213" y2="124" stroke="black" />
	<line x1="160" y1="126" x2="213" y2="125" stroke="black" />
	<line x1="160" y1="126" x2="214" y2="126" stroke="black" />
	<line x1="159" y1="127" x2="215" y2="127" stroke="black" />
	<line x1="159" y1="129" x2="215" y2="128" stroke="black" />
	<line x1="158" y1="129" x2="216" y2="129" stroke="black" />
	<line x1="158" y1="130" x2="217" y2="130" stroke="black" />
	<line x1="157" y1="132" x2="217" y2="131" stroke="black" />
	<line x1="157" y1="132" x2="218" y2="132" stroke="black" />
	<line x1="156" y1="133" x2="219" y2="133" stroke="black" />
	<line x1="156" y1="135" x2="219" y2="134" stroke="black" />
	<line x1="156" y1="135" x2="220" y2="135" stroke="black" />
	<line x1="155" y1="137" x2="220" y2="136" stroke="black" />
	<line x1="155" y1="137" x2="221" y2="137" stroke="black" />
	<line x1="154" y1="138" x2="222" y2="138" stroke="black" />
	<line x1="154" y1="140" x2="222" y2="139" stroke="black" />
	<line x1="153" y1="140" x2="223" y2="140" stroke="black" />
	<line x1="153" y1="141" x2="224" y2="141" stroke="black" />
	<line x1="153" y1="143" x2="224" y2="142" stroke="black" />
	<line x1="152" y1="143" x2="225" y2="143" stroke="black" />
	<line x1="152" y1="144" x2="226" y2="144" stroke="black" />
	<line x1="151" y1="146" x2="226" y2="145" stroke="black" />
	<line x1="151" y1="146" x2="227" y2="146" stroke="black" />
	<line x1="150" y1="148" x2="227" y2="147" stroke="black" />
	<line x1="150" y1="148" x2="228" y2="148" stroke="black" />
	<line x1="149" y1="149" x2="229" y2="149" stroke="black" />
	<line x1="149" y1="151" x2="229" y2="150" stroke="black" />
	<line x1="149" y1="151" x2="230" y2="151" stroke="black" />
	<line x1="148" y1="152" x2="231" y2="152" stroke="black" />
	<line x1="148" y1="154" x2="231" y2="153" stroke="black" />
	<line x1="147" y1="154" x2="232" y2="154" stroke="black" />
	<line x1="147" y1="155" x2="233" y2="155" stroke="black" />
	<line x1="146" y1="157" x2="233" y2="156" stroke="black" />
	<line x1="146" y1="157" x2="234" y2="157" stroke="black" />
	<line x1="146" y1="159" x2="234" y2="158" stroke="black" />
	<line x1="145" y1="159" x2="235" y2="159" stroke="black" />
	<line x1="145" y1="160" x2="236" y2="160" stroke="black" />
	<line x1="144" y1="162" x2="236" y2="161" stroke="black" />
	<line x1="144" y1="162" x2="237" y2="162" stroke="black" />
	<line x1="143" y1="163" x2="238" y2="163" stroke="black" />
	<line x1="143" y1="165" x2="238" y2="164" stroke="black" />
	<line x1="142" y1="165" x2="239" y2="165" stroke="black" />
	<line x1="142" y1="166" x2="240" y2="166" stroke="black" />
	<line x1="142" y1="168" x2="240" y2="167" stroke="black" />
	<line x1="141" y1="168" x2="241" y2="168" stroke="black" />
	<line x1="141" y1="170" x2="241" y2="169" stroke="black" />
	<line x1="140" y1="170" x2="242" y2="170" stroke="black" />
	<line x1="140" y1="171" x2="243" y2="171" stroke="black" />
	<line x1="139" y1="173" x2="243" y2="172" stroke="black" />
	<line x1="139" y1="173" x2="244" y2="173" stroke="black" />
	<line x1="139" y1="174" x2="245" y2="174" stroke="black" />
	<line x1="138" y1="176" x2="245" y2="175" stroke="black" />
	<line x1="138" y1="176" x2="246" y2="176" stroke="black" />
	<line x1="137" y1="177" x2="247" y2="177" stroke="black" />
	<line x1="137" y1="179" x2="247" y2="178" stroke="black" />
	<line x1="136" y1="179" x2="248" y2="179" stroke="black" />
	<line x1="136" y1="181" x2="248" y2="180" stroke="black" />
	<line x1="135" y1="181" x2="249" y2="181" stroke="black" />
	<line x1="135" y1="182" x2="250" y2="182" stroke="black" />
	<line x1="135" y1="184" x2="250" y2="183" stroke="black" />
	<line x1="134" y1="184" x2="251" y2="184" stroke="black" />
	<line x1="134" y1="185" x2="252" y2="185" stroke="black" />
	<line x1="133" y1="187" x2="252" y2="186" stroke="black" />
	<line x1="133" y1="187" x2="253" y2="187" stroke="black" />
	<line x1="132" y1="188" x2="254" y2="188" stroke="black" />
	<line x1="132" y1="190" x2="254" y2="189" stroke="black" />
	<line x1="132" y1="190" x2="255" y2="190" stroke="black" />
	<line x1="131" y1="192" x2="255" y2="191" stroke="black" />
	<line x1="131" y1="192" x2="256" y2="192" stroke="black" />
	<line x1="130" y1="193" x2="257" y2="193" stroke="black" />
	<line x1="130" y1="195" x2="257" y2="194" stroke="black" />
	<line x1="129" y1="195" x2="258" y2="195" stroke="black" />
	<line x1="129" y1="196" x2="259" y2="196" stroke="black" />
	<line x1="128" y1="198" x2="259" y2="197" stroke="black" />
	<line x1="128" y1="198" x2="260" y2="198" stroke="black" />
	<line x1="128" y1="200" x2="260" y2="199" stroke="black" />
	<line x1="127" y1="200" x2="261" y2="200" stroke="black" />
	<line x1="127" y1="201" x2="262" y2="201" stroke="black" />
	<line x1="126" y1="203" x2="262" y2="202" stroke="black" />
	<line x1="126" y1="203" x2="263" y2="203" stroke="black" />
	<line x1="125" y1="204" x2="264" y2="204" stroke="black" />
	<line x1="125" y1="206" x2="264" y2="205" stroke="black" />
	<line x1="125" y1="206" x2="265" y2="206" stroke="black" />
	<line x1="124" y1="207" x2="266" y2="207" stroke="black" />
	<line x1="124" y1="209" x2="266" y2="208" stroke="black" />
	<line x1="123" y1="209" x2="267" y2="209" stroke="black" />
	<line x1="123" y1="211" x2="267" y2="210" stroke="black" />
	<line x1="122" y1="211" x2="268" y2="211" stroke="black" />
	<line x1="122" y1="212" x2="269" y2="212" stroke="black" />
	<line x1="121" y1="214" x2="269" y2="213" stroke="black" />
	<line x1="121" y1="214" x2="270" y2="214" stroke="black" />
	<line x1="121" y1="215" x2="271" y2="215" stroke="black" />
	<line x1="120" y1="217" x2="271" y2="216" stroke="black" />
	<line x1="120" y1="217" x2="272" y2="217" stroke="black" />
	<line x1="119" y1="218" x2="273" y2="218" stroke="black" />
	<line x1="119" y1="220" x2="273" y2="219" stroke="black" />
	<line x1="118" y1="220" x2="274" y2="220" stroke="black" />
	<line x1="118" y1="222" x2="274" y2="221" stroke="black" />
	<line x1="118" y1="222" x2="275" y2="222" stroke="black" />
	<line x1="117" y1="223" x2="276" y2="223" stroke="black" />
	<line x1="117" y1="225" x2="276" y2="224" stroke="black" />
	<line x1="116" y1="225" x2="277" y2="225" stroke="black" />
	<line x1="116" y1="226" x2="278" y2="226" stroke="black" />
	<line x1="115" y1="228" x2="278" y2="227" stroke="black" />
	<line x1="115" y1="228" x2="279" y2="228" stroke="black" />
	<line x1="114" y1="229" x2="280" y2="229" stroke="black" />
	<line x1="114" y1="231" x2="280" y2="230" stroke="black" />
	<line x1="114" y1="231" x2="281" y2="231" stroke="black" />
	<line x1="113" y1="233" x2="281" y2="232" stroke="black" />
	<line x1="113" y1="233" x2="282" y2="233" stroke="black" />
	<line x1="112" y1="234" x2="283" y2="234" stroke="black" />
	<line x1="112" y1="236" x2="283" y2="235" stroke="black" />
	<line x1="111" y1="236" x2="284" y2="236" stroke="black" />
	<line x1="111" y1="237" x2="285" y2="237" stroke="black" />
	<line x1="111" y1="239" x2="285" y2="238" stroke="black" />
	<line x1="110" y1="239" x2="286" y2="239" stroke="black" />
	<line x1="110" y1="240" x2="287" y2="240" stroke="black" />
	<line x1="109" y1="242" x2="287" y2="241" stroke="black" />
	<line x1="109" y1="242" x2="288" y2="242" stroke="black" />
	<line x1="108" y1="244" x2="288" y2="243" stroke="black" />
	<line x1="108" y1="244" x2="289" y2="244" stroke="black" />
	<line x1="107" y1="245" x2="290" y2="245" stroke="black" />
	<line x1="107" y1="247" x2="290" y2="246" stroke="black" />
	<line x1="107" y1="247" x2="291" y2="247" stroke="black" />
	<line x1="106" y1="248" x2="292" y2="248" stroke="black" />
	<line x1="106" y1="250" x2="292" y2="249" stroke="black" />
	<line x1="105" y1="250" x2="293" y2="250" stroke="black" />
	<line x1="105" y1="251" x2="294" y2="251" stroke="black" />
	<line x1="104" y1="253" x2="294" y2="252" stroke="black" />
	<line x1="104" y1="253" x2="295" y2="253" stroke="black" />
	<line x1="104" y1="255" x2="295" y2="254" stroke="black" />
	<line x1="103" y1="255" x2="296" y2="255" stroke="black" />
	<line x1="103" y1="256" x2="297" y2="256" stroke="black" />
	<line x1="102" y1="258" x2="297" y2="257" stroke="black" />
	<line x1="102" y1="258" x2="298" y2="258" stroke="black" />
	<line x1="101" y1="259" x2="299" y2="259" stroke="black" />
	<line x1="101" y1="261" x2="299" y2="260" stroke="black" />
	<line x1="100" y1="261" x2="300" y2="261" stroke="black" />
	<line x1="100" y1="262" x2="301" y2="262" stroke="black" />
	<line x1="100" y1="264" x2="301" y2="263" stroke="black" />
	<line x1="99" y1="264" x2="302" y2="264" stroke="black" />
	<line x1="99" y1="266" x2="302" y2="265" stroke="black" />
	<line x1="98" y1="266" x2="303" y2="266" stroke="black" />
	<line x1="98" y1="267" x2="304" y2="267" stroke="black" />
	<line x1="97" y1="269" x2="304" y2="268" stroke="black" />
	<line x1="97" y1="269" x2="305" y2="269" stroke="black" />
	<line x1="97" y1="270" x2="306" y2="270" stroke="black" />
	<line x1="96" y1="272" x2="306" y2="271" stroke="black" />
	<line x1="96" y1="272" x2="307" y2="272" stroke="black" />
	<line x1="95" y1="273" x2="308" y2="273" stroke="black" />
	<line x1="95" y1="275" x2="308" y2="274" stroke="black" />
	<line x1="94" y1="275" x2="309" y2="275" stroke="black" />
	<line x1="94" y1="277" x2="309" y2="276" stroke="black" />
	<line x1="93" y1="277" x2="310" y2="277" stroke="black" />
	<line x1="93" y1="278" x2="311" y2="278" stroke="black" />
	<line x1="93" y1="280" x2="311" y2="279" stroke="black" />
	<line x1="92" y1="280" x2="312" y2="280" stroke="black" />
	<line x1="92" y1="281" x2="313" y2="281" stroke="black" />
	<line x1="91" y1="283" x2="313" y2="282" stroke="black" />
	<line x1="91" y1="283" x2="314" y2="283" stroke="black" />
	<line x1="90" y1="284" x2="315" y2="284" stroke="black" />
	<line x1="90" y1="286" x2="315" y2="285" stroke="black" />
	<line x1="90" y1="286" x2="316" y2="286" stroke="black" />
	<line x1="89" y1="288" x2="316" y2="287" stroke="black" />
	<line x1="89" y1="288" x2="317" y2="288" stroke="black" />
	<line x1="88" y1="289" x2="318" y2="289" stroke="black" />
	<line x1="88" y1="291" x2="318" y2="290" stroke="black" />
	<line x1="87" y1="291" x2="319" y2="291" stroke="black" />
	<line x1="87" y1="292" x2="320" y2="292" stroke="black" />
	<line x1="86" y1="294" x2="320" y2="293" stroke="black" />
	<line x1="86" y1="294" x2="321" y2="294" stroke="black" />
	<line x1="86" y1="295" x2="322" y2="295" stroke="black" />
	<line x1="85" y1="297" x2="322" y2="296" stroke="black" />
	<line x1="85" y1="297" x2="323" y2="297" stroke="black" />
	<line x1="84" y1="299" x2="323" y2="298" stroke="black" />
	<line x1="84" y1="299" x2="324" y2="299" stroke="black" />
	<line x1="83" y1="300" x2="325" y2="300" stroke="black" />
	<line x1="83" y1="302" x2="325" y2="301" stroke="black" />
	<line x1="83" y1="302" x2="326" y2="302" stroke="black" />
	<line x1="82" y1="303" x2="327" y2="303" stroke="black" />
	<line x1="82" y1="305" x2="327" y2="304" stroke="black" />
	<line x1="81" y1="305" x2="328" y2="305" stroke="black" />
	<line x1="81" y1="306" x2="329" y2="306" stroke="black" />
	<line x1="80" y1="308" x2="329" y2="307" stroke="black" />
	<line x1="80" y1="308" x2="330" y2="308" stroke="black" />
	<line x1="79" y1="310" x2="330" y2="309" stroke="black" />
	<line x1="79" y1="311" x2="331" y2="310" stroke="black" />
	<line x1="125" y1="311" x2="332" y2="312" stroke="black" />
	<line x1="209" y1="312" x2="332" y2="313" stroke="black" />
	<line x1="298" y1="314" x2="333" y2="314" stroke="black" />
</svg>